<svg width="27" height="36" viewBox="0 0 27 36" fill="none" xmlns="http://www.w3.org/2000/svg">
<path fill-rule="evenodd" clip-rule="evenodd" d="M2.45684 0.0696967C1.42137 0.272297 0.441814 1.20534 0.11003 2.30505C-0.0366766 2.79141 -0.0366766 33.1995 0.11003 33.6859C0.45104 34.8162 1.42549 35.7232 2.51877 35.9277C3.03395 36.0241 23.966 36.0241 24.4812 35.9277C25.5745 35.7232 26.549 34.8162 26.89 33.6859C27.0367 33.1995 27.0367 2.79141 26.89 2.30505C26.549 1.17468 25.5745 0.267726 24.4812 0.063227C24.009 -0.025169 2.90982 -0.0189103 2.45684 0.0696967ZM4.921 5.40517C4.64513 5.47191 4.50612 5.58211 4.3743 5.83858C4.22067 6.13752 4.22906 9.47519 4.38429 9.80437C4.61298 10.2893 4.0177 10.2599 13.6398 10.2599C23.2619 10.2599 22.6666 10.2893 22.8953 9.80437C22.9867 9.61056 23.0054 9.26605 23.0052 7.788C23.005 6.14694 22.9942 5.98759 22.8692 5.78133C22.7945 5.65806 22.6609 5.51565 22.5724 5.46488C22.4421 5.39013 20.7647 5.37037 13.7796 5.36143C9.03206 5.35532 5.04569 5.37501 4.921 5.40517ZM4.52597 14.355C4.07257 14.6205 3.9945 14.8556 3.99464 15.955C3.99471 17.0341 4.069 17.2806 4.47662 17.5545C4.70168 17.7058 4.78024 17.7142 5.98038 17.7142C7.40676 17.7142 7.61176 17.66 7.87358 17.214C7.99624 17.0049 8.01337 16.8495 8.01337 15.9436C8.01337 15.0109 7.99953 14.8929 7.86925 14.7174C7.52502 14.2534 7.45869 14.2349 6.06893 14.2144C4.85733 14.1965 4.78562 14.203 4.52597 14.355ZM12.0533 14.3443C11.5807 14.5797 11.4731 14.886 11.4732 15.9959C11.4733 17.0305 11.5514 17.2832 11.9552 17.5545C12.181 17.7063 12.2572 17.7142 13.5 17.7142C14.7428 17.7142 14.819 17.7063 15.0448 17.5545C15.4486 17.2832 15.5267 17.0305 15.5268 15.9959C15.5269 14.881 15.4187 14.5753 14.9415 14.3429C14.6781 14.2146 14.5125 14.198 13.4954 14.1981C12.4731 14.1981 12.3145 14.2142 12.0533 14.3443ZM19.6122 14.297C19.2958 14.4356 19.037 14.7852 18.9831 15.1466C18.9573 15.3199 18.9478 15.8023 18.962 16.2187C18.9917 17.0864 19.1034 17.3645 19.5097 17.5832C19.7216 17.6971 19.918 17.7142 21.0196 17.7142C22.2198 17.7142 22.2983 17.7058 22.5234 17.5545C22.931 17.2806 23.0053 17.0341 23.0054 15.955C23.0055 14.855 22.9269 14.6186 22.474 14.3574C22.2212 14.2115 22.1169 14.2005 21.0135 14.202C20.1823 14.203 19.7613 14.2316 19.6122 14.297ZM4.47662 21.179C4.04992 21.4658 3.98674 21.6914 4.00945 22.8477C4.02756 23.7719 4.04405 23.888 4.18531 24.0873C4.47683 24.4984 4.68896 24.547 6.08878 24.5223C7.45569 24.4983 7.52642 24.4782 7.86925 24.0162C7.99953 23.8406 8.01337 23.7226 8.01337 22.7899C8.01337 21.884 7.99624 21.7286 7.87358 21.5196C7.61176 21.0735 7.40676 21.0193 5.98038 21.0193C4.78024 21.0193 4.70168 21.0277 4.47662 21.179ZM11.9623 21.1776C11.551 21.4601 11.4731 21.7084 11.4731 22.7366C11.4731 23.8527 11.5812 24.1581 12.0585 24.3906C12.3217 24.5188 12.4877 24.5355 13.5 24.5355C14.5123 24.5355 14.6783 24.5188 14.9415 24.3906C15.4188 24.1581 15.5269 23.8527 15.5269 22.7366C15.5269 21.7084 15.449 21.4601 15.0377 21.1776C14.819 21.0274 14.7409 21.0193 13.5 21.0193C12.2591 21.0193 12.181 21.0274 11.9623 21.1776ZM19.5097 21.1504C19.0588 21.393 18.9866 21.6191 18.9866 22.7899C18.9866 23.7226 19.0005 23.8406 19.1308 24.0162C19.4736 24.4782 19.5443 24.4983 20.9112 24.5223C22.311 24.547 22.5232 24.4984 22.8147 24.0873C22.9559 23.888 22.9724 23.7719 22.9905 22.8477C23.0133 21.6914 22.9501 21.4658 22.5234 21.179C22.2983 21.0277 22.2198 21.0193 21.0196 21.0193C19.918 21.0193 19.7216 21.0364 19.5097 21.1504ZM4.72838 27.8449C4.44782 27.9355 4.32034 28.0422 4.14337 28.3342C4.01071 28.5532 3.99499 28.684 3.99478 29.5708C3.9945 30.4837 4.00701 30.581 4.15176 30.795C4.49514 31.3025 4.56119 31.3217 5.97409 31.3217C7.45045 31.3217 7.61414 31.2706 7.89511 30.7223C8.04426 30.4314 8.05481 30.3354 8.03489 29.4581C8.01532 28.5958 7.99841 28.4877 7.85059 28.2791C7.55137 27.8571 7.37412 27.808 6.0913 27.7917C5.45702 27.7838 4.8437 27.8077 4.72838 27.8449ZM12.2537 27.8392C11.951 27.9125 11.629 28.2272 11.5355 28.5412C11.4934 28.6826 11.4714 29.1917 11.4847 29.7172C11.5107 30.7487 11.5688 30.9021 12.0396 31.181C12.2709 31.3182 12.4025 31.3217 17.2866 31.3217C22.2602 31.3217 22.2978 31.3206 22.4937 31.1746C22.6022 31.0936 22.7617 30.9228 22.8482 30.795C22.9928 30.5812 23.0055 30.4831 23.0055 29.5803C23.0055 28.4759 22.9191 28.1998 22.4922 27.9398C22.2811 27.8114 22.0602 27.805 17.3791 27.7942C14.6882 27.788 12.3818 27.8083 12.2537 27.8392Z" fill="#D78A48"/>
</svg>
