<svg width="62" height="62" viewBox="0 0 62 62" fill="none" xmlns="http://www.w3.org/2000/svg">
<rect width="62" height="62" rx="6" fill="#D78A48"/>
<path fill-rule="evenodd" clip-rule="evenodd" d="M30.1495 9.24673C29.667 9.53146 29.2752 9.96372 28.5258 11.0382C28.2806 11.3899 27.9379 11.8361 27.7644 12.0299C27.4758 12.3521 27.417 12.3786 27.0759 12.3397C26.8708 12.3165 26.1968 12.0693 25.5781 11.7904C24.2992 11.214 23.891 11.0851 23.3411 11.0845C22.5373 11.0834 21.9337 11.5791 21.6667 12.4597C21.5838 12.733 21.4556 13.5564 21.3818 14.2896C21.3079 15.0228 21.2002 15.7274 21.1424 15.8552C20.9874 16.1983 20.7122 16.2848 19.3005 16.4342C17.7478 16.5983 17.1064 16.7696 16.6631 17.1382C16.2625 17.4713 16.0761 17.8761 16.0768 18.4116C16.0775 18.9657 16.2053 19.3779 16.7736 20.661C17.0483 21.2811 17.2947 21.9512 17.3212 22.1501C17.3819 22.6063 17.1966 22.8178 15.9553 23.709C14.7163 24.5986 14.488 24.8184 14.2118 25.3879C13.7143 26.4135 14.069 27.1886 15.5343 28.2781C16.0565 28.6664 16.6819 29.1567 16.924 29.3678C17.3418 29.7322 17.3619 29.7707 17.3217 30.1308C17.2984 30.3393 17.0532 31.0204 16.7767 31.6444C16.2053 32.9344 16.0775 33.3461 16.0768 33.9008C16.0761 34.428 16.2547 34.8239 16.6518 35.1757C17.056 35.5336 17.653 35.7135 18.8262 35.8312C19.3176 35.8804 19.7318 35.9331 19.7468 35.9484C19.7618 35.9636 18.5556 38.8945 17.0663 42.4616C15.5771 46.0287 14.3587 49.05 14.359 49.1756C14.3599 49.5689 14.6783 50.1409 15.0122 50.349C15.4678 50.6331 15.9154 50.5986 17.5795 50.1514L19.0374 49.7597L19.9794 51.1769C20.4975 51.9563 21.0289 52.6721 21.1602 52.7675C21.6867 53.1502 22.4593 53.0509 22.9322 52.5399C23.042 52.4215 24.2195 49.7353 25.5491 46.5709C26.8785 43.4064 27.9962 40.7834 28.0326 40.7418C28.0691 40.7003 28.3373 41.0086 28.6288 41.4269C29.9203 43.2813 30.8014 43.71 31.9289 43.0325C32.3094 42.804 32.5897 42.5106 33.1476 41.7571C33.546 41.2188 33.9094 40.7741 33.955 40.7687C34.0007 40.7632 35.1333 43.361 36.4722 46.5415C37.811 49.7219 38.9963 52.4211 39.1062 52.5398C39.5799 53.0516 40.3538 53.1504 40.8784 52.7661C41.0098 52.6699 41.5452 51.9523 42.0682 51.1714L43.0193 49.7515L44.4681 50.1481C46.1154 50.5991 46.5683 50.6346 47.0264 50.349C47.3603 50.1409 47.6787 49.5689 47.6796 49.1756C47.6799 49.05 46.4615 46.0287 44.9723 42.4616C43.483 38.8945 42.2736 35.9668 42.2847 35.9555C42.2958 35.9443 42.7101 35.891 43.2053 35.8373C44.4009 35.7076 44.9868 35.5299 45.3868 35.1757C45.7839 34.8239 45.9625 34.428 45.9618 33.9008C45.9611 33.3559 45.8378 32.9592 45.2603 31.6427C44.984 31.013 44.7391 30.3287 44.716 30.1222C44.6761 29.7658 44.6965 29.7274 45.1144 29.3704C45.3566 29.1635 45.9821 28.6742 46.5043 28.2831C47.6734 27.4076 48 26.9432 48 26.1562C48 25.3669 47.6733 24.9035 46.5043 24.0343C45.9821 23.646 45.3567 23.1556 45.1146 22.9445C44.6968 22.5801 44.6767 22.5417 44.7169 22.1816C44.7402 21.973 44.9854 21.2919 45.2619 20.668C45.8334 19.3779 45.9611 18.9662 45.9618 18.4116C45.9625 17.8761 45.7761 17.4713 45.3756 17.1382C44.9322 16.7696 44.2908 16.5983 42.7381 16.4342C42.0356 16.3598 41.3575 16.2515 41.2311 16.1935C40.8946 16.0388 40.8061 15.7594 40.6649 14.4075C40.4656 12.5001 40.3791 12.1751 39.9248 11.6306C39.621 11.2665 39.2103 11.0837 38.6975 11.0845C38.1476 11.0851 37.7394 11.214 36.4605 11.7904C35.8418 12.0693 35.1666 12.3165 34.9598 12.3401C34.6027 12.3807 34.5648 12.3605 34.2043 11.9389C33.9955 11.6947 33.5092 11.065 33.1235 10.5395C32.3022 9.42048 31.8255 9.06276 31.0832 9.00841C30.687 8.97945 30.538 9.01745 30.1495 9.24673ZM30.6649 10.5888C30.5121 10.7185 30.1347 11.1809 29.826 11.6165C28.583 13.3708 28.1287 13.7534 27.2966 13.7469C26.608 13.7416 26.3761 13.6727 25.0705 13.0861C24.4138 12.7909 23.7191 12.5241 23.5268 12.4931C23.0118 12.4101 22.9836 12.4976 22.6869 15.0958C22.4754 16.9484 21.8917 17.538 20.0586 17.7511C18.4033 17.9435 17.9017 18.0237 17.6606 18.1344C17.4425 18.2347 17.4231 18.2814 17.4717 18.5878C17.5014 18.7757 17.7709 19.4875 18.0704 20.1695C19.0867 22.4836 18.9661 23.1844 17.3416 24.4018C15.789 25.5653 15.6302 25.6955 15.4787 25.9287C15.3316 26.1552 15.3327 26.1785 15.5022 26.4126C15.6001 26.5479 16.024 26.9159 16.4442 27.2304C17.9713 28.3734 18.1567 28.5313 18.3906 28.8878C18.9131 29.6841 18.8438 30.382 18.0666 32.1516C17.7692 32.8288 17.5014 33.5367 17.4717 33.7246C17.4226 34.0337 17.4415 34.0772 17.6711 34.1827C17.8107 34.2468 18.273 34.3403 18.6987 34.3906C21.5213 34.7235 22.0233 34.939 22.4109 35.9837C22.5741 36.4236 22.6299 36.7588 22.859 38.6707C22.9041 39.0475 22.9868 39.4741 23.0428 39.6187C23.1352 39.8573 23.1759 39.8774 23.482 39.8352C23.6676 39.8097 24.2474 39.5937 24.7704 39.3554C26.1428 38.7297 26.6263 38.5794 27.2652 38.5794C28.083 38.5794 28.4644 38.8763 29.6052 40.4009C30.109 41.0742 30.6332 41.7084 30.7703 41.81L31.0193 41.9949L31.2684 41.8103C31.4053 41.7087 31.7125 41.3616 31.9509 41.0389C33.6245 38.7737 33.848 38.5794 34.7812 38.5794C35.4097 38.5794 35.8991 38.7327 37.2466 39.3518C38.4427 39.9014 38.7407 39.9551 38.9347 39.6564C39.0143 39.534 39.1188 39.1079 39.167 38.7096C39.2152 38.3115 39.2995 37.6157 39.3543 37.1635C39.5984 35.1522 40.1607 34.7144 42.8203 34.4646C43.4084 34.4095 44.0401 34.3107 44.224 34.2452C44.5389 34.1332 44.5577 34.1047 44.5426 33.7613C44.5329 33.5403 44.3254 32.9504 44.0164 32.2655C43.1789 30.4095 43.1035 29.7177 43.6479 28.888C43.8819 28.5313 44.0672 28.3734 45.5944 27.2304C46.0146 26.9159 46.4402 26.5456 46.5403 26.4074L46.7222 26.1562L46.5403 25.905C46.4402 25.7669 46.0146 25.3964 45.5944 25.0819C44.0673 23.9389 43.8819 23.7811 43.648 23.4245C43.1164 22.6143 43.1824 21.9587 43.9781 20.1469C44.2721 19.4773 44.5372 18.7757 44.5669 18.5878C44.6473 18.081 44.5513 18.0499 41.98 17.7511C40.1469 17.538 39.5632 16.9484 39.3517 15.0958C39.1617 13.4319 39.0819 12.9249 38.9719 12.6812C38.8745 12.4657 38.8208 12.4408 38.5399 12.4805C38.3635 12.5054 37.6486 12.7831 36.9512 13.0976C35.8389 13.5992 35.5978 13.6747 34.9862 13.7127C33.8991 13.7801 33.556 13.5284 32.3009 11.7427C31.7085 10.9001 31.2041 10.3531 31.0193 10.3531C30.9771 10.3531 30.8176 10.4592 30.6649 10.5888ZM30.1589 16.0199C29.2298 16.1004 28.5075 16.2543 27.7137 16.5413C23.5965 18.0297 20.9453 21.7958 20.9453 26.1562C20.9453 31.0891 24.3676 35.2405 29.2016 36.1714C30.2015 36.3639 31.8371 36.3639 32.837 36.1714C39.4958 34.8891 43.0494 27.6379 40.007 21.5406C38.1805 17.8802 34.233 15.6673 30.1589 16.0199ZM29.1917 17.5614C27.3274 17.9711 25.6139 19.0183 24.3427 20.5252C23.4413 21.5937 22.7831 22.9705 22.4894 24.4021C22.342 25.1205 22.316 25.5134 22.3522 26.4759C22.407 27.9335 22.6158 28.7852 23.2258 30.0384C24.078 31.789 25.4309 33.1535 27.1703 34.0163C28.6004 34.7257 29.2435 34.868 31.0193 34.868C32.7943 34.868 33.4367 34.726 34.8683 34.017C37.0894 32.917 38.7916 30.8313 39.4569 28.3942C39.7447 27.3403 39.747 24.9793 39.4615 23.9379C38.6181 20.863 36.2339 18.4606 33.2186 17.6477C32.1894 17.3701 30.251 17.3287 29.1917 17.5614ZM30.5212 20.633C30.0758 20.8611 29.9551 21.085 29.5128 22.5034L29.0905 23.8575L27.587 23.8884C25.9212 23.9226 25.6179 24.0071 25.3606 24.5089C25.1887 24.8442 25.1841 25.3583 25.35 25.6812C25.4197 25.8168 26.0119 26.3165 26.6658 26.7915C27.3532 27.2908 27.8367 27.7025 27.812 27.7674C27.7885 27.8292 27.5792 28.4855 27.3469 29.226C26.9658 30.4409 26.9345 30.6056 27.0264 30.9152C27.2148 31.5493 27.9491 31.9507 28.5203 31.7316C28.664 31.6765 29.2855 31.2593 29.9014 30.8045L31.0211 29.9775L32.2062 30.8504C32.9179 31.3747 33.5151 31.7468 33.7011 31.782C34.0896 31.8555 34.4864 31.6954 34.7759 31.3484C35.1573 30.8911 35.1427 30.6293 34.6484 29.0798C34.4 28.3015 34.2257 27.6404 34.2609 27.6109C34.2961 27.5813 34.8367 27.1828 35.4625 26.7254C36.0994 26.2596 36.6474 25.7886 36.7077 25.6551C36.8556 25.3278 36.8426 24.8302 36.678 24.5089C36.4208 24.0072 36.1172 23.9226 34.4535 23.8884L32.9519 23.8576L32.5252 22.5314C32.04 21.0236 31.9422 20.8391 31.521 20.6375C31.1422 20.4562 30.8687 20.4549 30.5212 20.633ZM30.6662 23.4386C30.0837 25.2506 30.0616 25.2683 28.3041 25.3341L27.0832 25.3797L28.0324 26.0797C29.4294 27.1099 29.453 27.1805 28.942 28.8022C28.7447 29.4286 28.5988 29.9568 28.6178 29.9759C28.6368 29.9952 29.0479 29.715 29.5313 29.3532C30.9387 28.3002 31.0572 28.2985 32.4506 29.3129C32.9706 29.6913 33.4092 29.9876 33.4253 29.9714C33.4414 29.9551 33.2884 29.4155 33.0852 28.7723C32.5776 27.1655 32.5897 27.1283 33.9407 26.1271L34.9494 25.3797L33.7315 25.3341C31.9775 25.2683 31.9547 25.25 31.3724 23.4386C31.2068 22.9237 31.0479 22.5023 31.0193 22.5023C30.9907 22.5023 30.8318 22.9237 30.6662 23.4386ZM18.5022 42.6249C17.0729 46.0519 15.8777 48.9255 15.8463 49.0106C15.7982 49.1409 16.0296 49.1015 17.3138 48.7606C18.1524 48.5381 18.9552 48.3554 19.0979 48.3548C19.6602 48.3521 19.9846 48.6661 20.9555 50.153C21.465 50.9332 21.8984 51.5549 21.9186 51.5346C22.0089 51.4433 26.7634 40.1025 26.7268 40.0655C26.7041 40.0427 26.2649 40.2172 25.7507 40.4535C24.4313 41.0595 23.9078 41.2284 23.348 41.2284C22.7723 41.2284 22.4552 41.0823 22.0693 40.639C21.6998 40.2145 21.5448 39.6345 21.3843 38.077C21.3119 37.3736 21.2185 36.7071 21.1768 36.596C21.1159 36.4333 20.5942 37.6091 18.5022 42.6249ZM40.8567 36.5274C40.8203 36.6232 40.7305 37.2782 40.6573 37.9831C40.4951 39.5425 40.325 40.1899 39.9599 40.6366C39.6297 41.0406 39.2284 41.2286 38.6975 41.2279C38.1461 41.2272 37.7363 41.0985 36.4683 40.5281C35.854 40.2518 35.3328 40.0444 35.31 40.0673C35.2713 40.1064 39.9992 51.4126 40.0946 51.5088C40.119 51.5335 40.4813 51.0303 40.8997 50.3906C42.0188 48.68 42.3477 48.3527 42.9465 48.3541C43.086 48.3544 43.8713 48.5373 44.6916 48.7604C45.5119 48.9835 46.1942 49.1549 46.2077 49.1412C46.2255 49.1233 42.3254 39.6834 40.9974 36.53C40.9245 36.3569 40.9216 36.3568 40.8567 36.5274Z" fill="white"/>
</svg>
