<svg width="62" height="62" viewBox="0 0 62 62" fill="none" xmlns="http://www.w3.org/2000/svg">
<rect width="62" height="62" rx="6" fill="#D78A48"/>
<path fill-rule="evenodd" clip-rule="evenodd" d="M14.5899 18.1393C14.469 18.2055 14.3251 18.3594 14.2701 18.4811C14.2152 18.6029 14.1087 19.4537 14.0336 20.3719C13.9585 21.29 13.8812 22.0901 13.8621 22.1496C13.8359 22.2308 13.4486 22.2579 12.3144 22.2579H10.8018L10.5507 22.5112C10.1875 22.8775 10.2023 23.3037 10.5916 23.6964L10.8837 23.9911H12.3196H13.7553L13.705 24.3594C13.6773 24.562 13.6293 25.1032 13.5984 25.5623L13.5419 26.3969L12.8097 26.4357C12.1162 26.4724 12.0644 26.4891 11.8328 26.7507C11.5036 27.1223 11.5028 27.5315 11.8302 27.9013C12.0536 28.1534 12.1242 28.178 12.7396 28.2179L13.4069 28.261L13.3603 28.5308C13.3347 28.6792 13.2875 29.2198 13.2553 29.7321L13.1969 30.6637H11.3961H9.59513L9.30305 30.9583C8.91372 31.3511 8.89894 31.7773 9.26207 32.1436L9.51317 32.3969H11.2884H13.0637L13.0159 32.7218C12.9897 32.9006 12.8462 34.5575 12.6969 36.4038C12.4697 39.215 12.4433 39.8039 12.5344 40.0259C12.7306 40.5037 12.9213 40.5427 15.062 40.5427H16.9981L17.3004 41.1482C17.6647 41.878 18.5139 42.8117 19.1832 43.2184C20.7336 44.1606 22.4887 44.2541 24.1238 43.4815C25.0822 43.0286 26.1046 42.0144 26.4941 41.13L26.7506 40.5474H32.7211H38.6916L38.9439 41.1168C39.2515 41.8113 40.1376 42.7984 40.8304 43.2184C42.3849 44.1608 44.137 44.2541 45.7721 43.4815C46.7306 43.0286 47.753 42.0144 48.1425 41.13L48.399 40.5474L50.3493 40.545C51.6738 40.5435 52.3719 40.5095 52.5249 40.4391C52.9945 40.2233 52.9891 40.2863 52.9975 34.811C53.0064 28.902 53.0332 29.1286 52.2287 28.317C51.6954 27.779 51.1573 27.544 50.4589 27.544C50.1529 27.544 50.0862 27.5099 49.9931 27.3057C49.9333 27.1747 49.3442 25.8 48.684 24.251C48.0238 22.702 47.4234 21.3062 47.3499 21.1492C47.0992 20.6144 47.0777 20.6114 43.4207 20.6114H40.109V19.6623C40.109 18.6107 40.0255 18.3222 39.667 18.1352C39.3166 17.9523 14.9233 17.9562 14.5899 18.1393ZM15.7642 20.5031C15.7329 20.9202 15.6839 21.4856 15.6554 21.7596L15.6036 22.2579H16.9528H18.3021L18.5532 22.5112C18.9517 22.9132 18.8665 23.5543 18.3756 23.8468C18.1779 23.9646 17.8902 23.9911 16.8048 23.9911H15.4761L15.4191 24.706C15.3877 25.0992 15.3393 25.6435 15.3114 25.9155L15.2608 26.4099L18.7149 26.4354L22.1689 26.4608L22.4195 26.7438C22.7581 27.1263 22.7581 27.5285 22.4195 27.9109L22.1689 28.194L18.6503 28.2193L15.1318 28.2446L15.0781 28.8475C15.0485 29.1792 15.0001 29.7235 14.9704 30.0571L14.9163 30.6637H15.451C16.2673 30.6637 16.6566 30.975 16.6566 31.6277C16.6566 31.8023 16.5725 31.975 16.4055 32.1436C16.1701 32.381 16.1117 32.3969 15.4716 32.3969H14.7888L14.736 32.9818C14.707 33.3035 14.658 33.869 14.6272 34.2383L14.5712 34.9099H16.5046H18.4379L19.002 34.5283C20.8528 33.2764 23.3259 33.3313 25.0019 34.6615L25.3149 34.9099H31.8529H38.3909V27.3274V19.7448H27.1061H15.8212L15.7642 20.5031ZM21.2521 22.4531C21.1024 22.5829 21.0114 22.7672 20.9799 23.004C20.9388 23.3131 20.9668 23.3986 21.1927 23.6538L21.4529 23.9477L23.2774 23.9743C25.2748 24.0035 25.5124 23.9623 25.7238 23.5499C25.9253 23.1568 25.8816 22.7979 25.5975 22.5112L25.3464 22.2579H23.4117C21.5287 22.2579 21.4709 22.2631 21.2521 22.4531ZM40.109 28.6195V34.8945L40.6618 34.5207C42.5007 33.2768 44.979 33.335 46.6503 34.6615L46.9633 34.9099H49.1237H51.2841L51.259 32.3125C51.2342 29.7414 51.2319 29.7131 51.0383 29.5177L50.8428 29.3205L46.8289 29.2772C44.6213 29.2534 42.746 29.1999 42.6616 29.1584C42.2788 28.9701 42.2567 28.7689 42.2567 25.4686V22.3446H41.1829H40.109V28.6195ZM43.9748 24.9443V27.544H46.0867C47.2482 27.544 48.1857 27.5129 48.1699 27.4749C48.1542 27.4368 47.6581 26.2677 47.0674 24.8769L45.9936 22.348L44.9842 22.3463L43.9748 22.3446V24.9443ZM25.3656 26.542C24.6249 26.8672 24.636 27.801 25.3846 28.1165C25.7713 28.2794 27.2181 28.2779 27.6068 28.1142C27.892 27.9939 28.1681 27.607 28.1681 27.3274C28.1681 27.0477 27.892 26.6609 27.6068 26.5406C27.2238 26.3793 25.7343 26.3801 25.3656 26.542ZM9.03261 31.5736C9.03356 31.7643 9.05117 31.832 9.0717 31.7242C9.09223 31.6164 9.09146 31.4604 9.06998 31.3776C9.04851 31.2948 9.03167 31.383 9.03261 31.5736ZM21.0594 35.4771C19.6988 35.8467 18.791 36.8535 18.5269 38.2856C18.1152 40.5188 20.2258 42.6164 22.4655 42.2001C23.9444 41.9252 24.9855 40.8598 25.2669 39.3335C25.4513 38.3332 25.0697 37.149 24.3189 36.3915C23.4363 35.5012 22.2234 35.161 21.0594 35.4771ZM42.7078 35.4771C41.3472 35.8467 40.4393 36.8535 40.1753 38.2856C39.7636 40.5188 41.8741 42.6164 44.1139 42.2001C45.5928 41.9252 46.6339 40.8598 46.9153 39.3335C47.0997 38.3332 46.7181 37.149 45.9672 36.3915C45.0846 35.5012 43.8717 35.161 42.7078 35.4771ZM14.3885 37.228C14.3585 37.5497 14.3116 38.0371 14.2841 38.3112L14.2344 38.8095H15.4885H16.7425L16.7475 38.4412C16.7521 38.1019 16.9694 37.153 17.1247 36.7947C17.1858 36.6538 17.0928 36.6431 15.8167 36.6431H14.4431L14.3885 37.228ZM26.6218 36.6728C26.6218 36.6892 26.6984 36.9274 26.7921 37.2021C26.8858 37.4768 26.9878 37.9509 27.0187 38.2556L27.075 38.8095H32.7211H38.3672L38.4257 38.2335C38.4578 37.9167 38.5599 37.4403 38.6523 37.175C38.7448 36.9096 38.8204 36.6813 38.8204 36.6678C38.8204 36.6542 36.0757 36.6431 32.7211 36.6431C29.3665 36.6431 26.6218 36.6565 26.6218 36.6728ZM48.2701 36.6728C48.2701 36.6892 48.3493 36.933 48.446 37.2144C48.5427 37.496 48.6449 37.9701 48.6732 38.2679L48.7245 38.8095H50.0007H51.2769V37.7263V36.6431H49.7735C48.9466 36.6431 48.2701 36.6565 48.2701 36.6728ZM21.4768 38.0639C20.7321 38.4803 21.0437 39.6761 21.8969 39.6761C22.3322 39.6761 22.756 39.2528 22.756 38.8179C22.756 38.1673 22.0432 37.7472 21.4768 38.0639ZM43.1252 38.0639C42.3805 38.4803 42.6921 39.6761 43.5453 39.6761C43.9806 39.6761 44.4044 39.2528 44.4044 38.8179C44.4044 38.1673 43.6916 37.7472 43.1252 38.0639Z" fill="white"/>
</svg>
