<svg width="46" height="46" viewBox="0 0 46 46" fill="none" xmlns="http://www.w3.org/2000/svg">
<rect width="46" height="46" rx="4" fill="#D78A48"/>
<path fill-rule="evenodd" clip-rule="evenodd" d="M18.8739 6.10932C18.6402 6.22397 18.3931 6.49267 18.3931 6.63203C18.3931 6.67839 18.1906 6.77783 17.943 6.85316C16.7922 7.20302 15.6951 7.88236 14.7167 8.85071C13.4435 10.111 12.66 11.5979 12.3862 13.2734C12.3107 13.7357 12.3075 13.741 11.9922 13.9164C10.6221 14.6784 10.5644 16.7211 11.8883 17.5966L12.2421 17.8307L12.2745 18.8727C12.3017 19.751 12.3349 20.0081 12.486 20.5093C12.8392 21.6814 13.5847 22.979 14.488 23.9939C14.729 24.2647 14.9184 24.4925 14.909 24.5001C14.8997 24.5077 14.5019 24.6688 14.0251 24.858C12.4249 25.493 11.2371 26.2766 9.99026 27.5196C8.16555 29.3385 6.96016 31.5756 6.24974 34.4619C5.85375 36.0707 5.92403 36.9768 6.49382 37.608C6.8648 38.0191 7.37856 38.2513 8.12147 38.3438C8.43223 38.3825 9.74071 38.4142 11.0292 38.4142C13.3485 38.4142 13.374 38.4128 13.5933 38.2648C13.9751 38.0071 14.0174 37.5702 13.692 37.2461L13.531 37.0857L11.2772 37.0845C7.95761 37.0828 7.49653 37.0083 7.36409 36.452C7.28047 36.1009 7.39417 35.3414 7.69293 34.2556C8.15114 32.5904 8.88731 31.0222 9.82981 29.7036C10.2852 29.0666 11.2967 28.0264 11.924 27.5502C12.3463 27.2296 13.697 26.3912 13.7912 26.3912C13.8171 26.3912 13.8579 26.6528 13.8817 26.9724C13.9056 27.2921 13.9708 27.7451 14.0267 27.9791C14.2318 28.8373 14.944 30.0898 15.6574 30.8465C15.9356 31.1417 15.9944 31.1738 16.2568 31.1738C16.5785 31.1738 16.479 31.2615 19.3357 28.4601C19.9091 27.8978 20.4104 27.4489 20.4496 27.4625C20.4888 27.4761 21.3772 28.3167 22.4238 29.3305L24.3268 31.1738H24.6209C24.8932 31.1738 24.9407 31.146 25.2572 30.801C26.3088 29.6549 26.9915 28.0986 26.9947 26.8396C26.9953 26.593 27.0155 26.3912 27.0395 26.3912C27.1282 26.3912 27.9802 26.8884 28.5302 27.2612C28.8423 27.4727 29.3217 27.852 29.5956 28.1041L30.0937 28.5624L29.6618 28.7035C29.4242 28.781 29.0387 28.8743 28.8051 28.9108C28.0447 29.0293 27.9295 29.1882 27.9295 30.118C27.9295 32.3391 28.5606 34.4451 29.7947 36.3422C30.0159 36.6822 30.1969 36.9886 30.1969 37.0231C30.1969 37.0618 28.0499 37.0857 24.5677 37.0857H18.9385L18.7659 37.2901C18.4487 37.6654 18.58 38.1787 19.0374 38.3518C19.1356 38.389 21.6516 38.4142 25.274 38.4142H31.3459L31.8954 38.9323C32.8698 39.8511 33.7388 40.1734 34.5387 39.9128C35.5158 39.5945 36.7504 38.4092 37.9317 36.6553C39.3432 34.5599 40 32.4794 40 30.1038C40 29.1898 39.8826 29.0296 39.1244 28.9099C37.7141 28.6873 36.1404 27.8394 34.7137 26.5333C34.0097 25.8889 33.9139 25.8891 33.2138 26.5363C32.6783 27.0314 31.7426 27.7522 31.4795 27.8723C31.3434 27.9344 31.2671 27.882 30.7126 27.3449C29.4765 26.1476 28.1758 25.3311 26.5464 24.7297L25.943 24.507L26.4091 23.9711C27.0319 23.2552 27.5226 22.5095 27.9307 21.6584C28.4093 20.6605 28.6004 19.8723 28.6449 18.7128L28.6807 17.7766L28.9087 17.6543C29.228 17.483 29.5826 17.0719 29.7785 16.6457C30.0166 16.1276 30.0123 15.4561 29.7674 14.9217C29.5619 14.4732 29.1558 14.0314 28.8035 13.8731C28.5631 13.7651 28.5562 13.7515 28.4731 13.2261C28.0253 10.3912 25.7719 7.75462 23.0613 6.89421C22.7476 6.79464 22.6751 6.73924 22.5606 6.512C22.3206 6.03552 22.1729 5.99833 20.5282 6.00005C19.3416 6.00132 19.0554 6.02018 18.8739 6.10932ZM19.6602 8.04224C19.6602 9.7719 19.4341 11.7971 19.1212 12.8703C19.0461 13.1278 18.9696 13.3908 18.9512 13.4548C18.9199 13.5632 19.0253 13.571 20.5131 13.571H22.1084L21.9251 12.9206C21.5647 11.6416 21.3956 10.2028 21.3947 8.40645L21.3941 7.32704H20.5271H19.6602V8.04224ZM17.9193 8.2823C16.9657 8.66837 15.9384 9.40051 15.3186 10.1358C14.5958 10.9933 14.1836 11.7504 13.8872 12.7648C13.6251 13.662 13.4301 13.571 15.615 13.571H17.5052L17.6797 12.9898C17.9299 12.1567 17.9962 11.8816 18.1002 11.2461C18.1905 10.6951 18.3632 8.20498 18.3146 8.15656C18.3011 8.14314 18.1232 8.19974 17.9193 8.2823ZM22.7285 8.74024C22.7303 10.1303 22.9647 11.7624 23.3294 12.9234L23.5328 13.571H25.3557H27.1787L27.12 13.2555C26.9817 12.512 26.5066 11.3912 26.0488 10.7285C25.7307 10.268 24.8825 9.40795 24.427 9.08406C24.0409 8.80939 23.2938 8.40426 22.9112 8.26204L22.7278 8.19389L22.7285 8.74024ZM12.6417 15.0826C12.2052 15.3521 12.1441 16.0126 12.5209 16.388L12.7272 16.5934L20.345 16.6132C27.2395 16.6311 27.9823 16.6228 28.1676 16.5261C28.5645 16.319 28.7148 15.7853 28.4952 15.3623C28.2774 14.9428 28.7484 14.9658 20.4138 14.9678C13.3864 14.9694 12.8112 14.9779 12.6417 15.0826ZM13.5926 18.6689C13.5943 19.9447 13.9122 20.8887 14.7837 22.2064C15.2415 22.8987 16.5093 24.1783 17.1688 24.614C17.8552 25.0673 18.8068 25.5059 19.4577 25.6687C21.1108 26.0824 23.1264 25.3308 24.848 23.6587C26.4966 22.0574 27.4059 20.1155 27.3166 18.3869L27.296 17.9883L20.4438 17.9714L13.5916 17.9545L13.5926 18.6689ZM15.6139 25.7062L15.2689 25.8076L15.2237 26.2879C15.1722 26.8348 15.2667 27.5641 15.4519 28.0496C15.589 28.4091 15.982 29.1207 16.1862 29.3791L16.3164 29.544L17.4381 28.4546C18.0551 27.8554 18.662 27.2679 18.7868 27.1492L19.0138 26.9332L18.7238 26.8554C18.2644 26.7322 17.5468 26.3978 16.8449 25.9799C16.4885 25.7677 16.1434 25.5965 16.078 25.5995C16.0126 25.6024 15.8037 25.6504 15.6139 25.7062ZM24.0027 25.9946C23.6585 26.2119 23.048 26.5167 22.646 26.6717L21.9149 26.9535L23.2308 28.2465L24.5466 29.5394L24.6904 29.3599C25.4005 28.4728 25.789 27.1337 25.6344 26.1065C25.5889 25.8044 25.5841 25.7995 25.2315 25.6974C25.0352 25.6406 24.8192 25.5953 24.7516 25.5967C24.6839 25.5981 24.3469 25.7772 24.0027 25.9946ZM33.6284 27.964C33.163 28.3748 32.0083 29.1407 31.3808 29.455C30.8468 29.7225 29.5776 30.1774 29.3656 30.1774C29.2631 30.1774 29.2558 30.2372 29.295 30.7587C29.4732 33.1297 30.3012 35.0528 32.0486 37.1545C32.9259 38.2095 33.646 38.7356 34.0976 38.6512C34.5233 38.5716 35.2514 37.9435 36.028 36.9861C37.5687 35.0866 38.3706 33.2878 38.5958 31.2262C38.7159 30.1271 38.7659 30.232 38.0212 30.0235C36.8611 29.6986 35.5656 28.9934 34.462 28.0859L33.9591 27.6722L33.6284 27.964ZM35.5564 31.5216C35.4781 31.5678 35.0768 31.9792 34.6644 32.4359C34.2521 32.8926 33.8453 33.3384 33.7604 33.4267L33.6061 33.5872L33.2285 33.3033C32.724 32.9238 32.4293 32.8816 32.1321 33.1461C31.957 33.302 31.913 33.3933 31.9072 33.613C31.8983 33.9509 31.966 34.0295 32.8172 34.6689C33.4599 35.1516 33.664 35.2319 33.9598 35.1188C34.0884 35.0697 36.3433 32.5997 36.461 32.3791C36.5728 32.1696 36.5011 31.8281 36.3074 31.6468C36.1173 31.469 35.7494 31.4076 35.5564 31.5216ZM15.7872 37.2799C15.4131 37.6526 15.6023 38.2665 16.1267 38.3812C16.6416 38.4939 17.078 37.9033 16.8312 37.4279C16.622 37.0249 16.1153 36.9531 15.7872 37.2799Z" fill="white"/>
</svg>
