<svg width="40" height="40" viewBox="0 0 40 40" fill="none" xmlns="http://www.w3.org/2000/svg">
<rect width="40" height="40" rx="20" fill="#D78A48"/>
<path fill-rule="evenodd" clip-rule="evenodd" d="M11.3699 13.0482C11.2622 13.0743 11.1441 13.1124 11.1074 13.133C11.0515 13.1643 11.7421 13.8723 15.3141 17.4457C17.9484 20.0811 19.6362 21.7411 19.7142 21.7735C19.8762 21.8408 20.1238 21.8408 20.2858 21.7735C20.4133 21.7205 28.9239 13.2471 28.9279 13.1692C28.929 13.1478 28.8184 13.1008 28.6822 13.0648C28.4537 13.0045 27.7795 12.9995 20 13C13.4985 13.0005 11.5207 13.0116 11.3699 13.0482ZM10.0739 14.2294C10.0029 14.4444 10 14.6689 10 19.9975C10 25.326 10.0029 25.5505 10.0739 25.7655C10.1145 25.8886 10.1614 25.9893 10.1782 25.9893C10.2247 25.9893 16.1448 20.0444 16.1448 19.9978C16.1448 19.9511 10.2247 14.0057 10.1783 14.0057C10.1614 14.0057 10.1145 14.1064 10.0739 14.2294ZM26.8234 16.9843C25.1909 18.6226 23.8552 19.9785 23.8552 19.9975C23.8552 20.04 29.7796 25.9893 29.8219 25.9893C29.8386 25.9893 29.8855 25.8886 29.9261 25.7655C29.9971 25.5505 30 25.326 30 19.9975C30 14.6689 29.9971 14.4444 29.9261 14.2294C29.8855 14.1064 29.8386 14.0057 29.8219 14.0057C29.8052 14.0057 28.4559 15.3461 26.8234 16.9843ZM14.0171 23.8447C11.0652 26.8081 11.0385 26.8363 11.145 26.8786C11.2041 26.902 11.3317 26.9387 11.4286 26.9601C11.5428 26.9853 14.5509 26.9993 19.9923 26.9999C27.4928 27.0008 28.4086 26.9944 28.6514 26.9395C28.8007 26.9057 28.9302 26.8662 28.9392 26.8517C28.9483 26.8372 27.6114 25.4772 25.9685 23.8297L22.9814 20.834L22.0485 21.7529C21.5353 22.2583 21.0362 22.716 20.9393 22.7698C20.3276 23.1103 19.5607 23.0916 18.9856 22.7223C18.8869 22.6589 18.4101 22.2125 17.9259 21.7303C17.4418 21.248 17.0346 20.8534 17.0212 20.8534C17.0077 20.8534 15.6559 22.1995 14.0171 23.8447Z" fill="white"/>
</svg>
