<svg width="46" height="46" viewBox="0 0 46 46" fill="none" xmlns="http://www.w3.org/2000/svg">
<rect width="46" height="46" rx="4" fill="#D78A48"/>
<path fill-rule="evenodd" clip-rule="evenodd" d="M10.0822 8.12416C9.66618 8.28349 9.27964 8.67453 9.12166 9.09583L9 9.42026V20.9707V32.5211L9.12166 32.8456C9.2835 33.2772 9.66572 33.6585 10.0983 33.82C10.4054 33.9347 10.5226 33.9414 12.2096 33.9414H13.9956V34.7605C13.9956 35.4593 14.0135 35.6274 14.1173 35.9042C14.2791 36.3358 14.6614 36.7171 15.0939 36.8786L15.4191 37H24.4978H33.5765L33.9017 36.8786C34.3343 36.7171 34.7165 36.3358 34.8783 35.9042L35 35.5797V24.0293V12.4789L34.8783 12.1544C34.7165 11.7228 34.3343 11.3415 33.9017 11.18C33.5946 11.0653 33.4774 11.0586 31.7904 11.0586H30.0044V10.2395C30.0044 9.54068 29.9865 9.37257 29.8827 9.09583C29.7209 8.66422 29.3386 8.28286 28.9061 8.12138L28.5809 8L19.4858 8.00295C10.4034 8.00589 10.3904 8.00606 10.0822 8.12416ZM10.5044 9.18611C10.4419 9.21171 10.3397 9.28937 10.2773 9.35864C10.1646 9.4837 10.1638 9.5643 10.1638 20.9753V32.4662L10.3212 32.6232L10.4785 32.7803L17.6268 32.7951L24.7751 32.8099L24.7926 31.2374C24.8117 29.51 24.8136 29.5003 25.1834 29.1313C25.5533 28.7623 25.563 28.7605 27.2937 28.7413L28.869 28.7239V26.2322C28.869 23.5739 28.8765 23.4972 29.1497 23.3513C29.2899 23.2764 29.5834 23.2764 29.7236 23.3513C30.0002 23.499 30.0044 23.5464 30.0044 26.579C30.0044 28.5385 29.985 29.4559 29.9416 29.5413C29.8524 29.7174 25.8067 33.7621 25.6218 33.8601C25.4919 33.929 24.6798 33.9414 20.2955 33.9414H15.1224L15.1409 34.7332C15.1591 35.5123 15.1619 35.5276 15.3168 35.682L15.4742 35.8389H24.4978H33.5215L33.6788 35.6818L33.8362 35.5248V24.0293V12.5338L33.6789 12.3768L33.5216 12.2197L31.763 12.2032L30.0044 12.1868V15.5282C30.0044 17.9983 29.9867 18.9084 29.9365 19.0182C29.8624 19.1805 29.6244 19.3281 29.4367 19.3281C29.2723 19.3281 29.0065 19.1833 28.9468 19.0612C28.9196 19.0055 28.8846 16.8259 28.869 14.2176L28.8406 9.47521L28.6832 9.31814L28.5258 9.16113L19.5718 9.15031C14.6472 9.14431 10.5668 9.16045 10.5044 9.18611ZM12.5644 12.4688C12.4121 12.6047 12.3803 12.674 12.3803 12.8711C12.3803 13.0682 12.4121 13.1375 12.5644 13.2734L12.7485 13.4375H19.5022H26.2558L26.4399 13.2734C26.5923 13.1375 26.6241 13.0682 26.6241 12.8711C26.6241 12.674 26.5923 12.6047 26.4399 12.4688L26.2558 12.3047H19.5022H12.7485L12.5644 12.4688ZM12.5644 15.4141C12.4121 15.55 12.3803 15.6193 12.3803 15.8164C12.3803 16.0135 12.4121 16.0828 12.5644 16.2187L12.7485 16.3828H19.5022H26.2558L26.4399 16.2187C26.5923 16.0828 26.6241 16.0135 26.6241 15.8164C26.6241 15.6193 26.5923 15.55 26.4399 15.4141L26.2558 15.25H19.5022H12.7485L12.5644 15.4141ZM12.5644 18.3595C12.4121 18.4953 12.3803 18.5646 12.3803 18.7617C12.3803 18.9588 12.4121 19.0282 12.5644 19.164L12.7485 19.3281H19.5022H26.2558L26.4399 19.164C26.5923 19.0282 26.6241 18.9588 26.6241 18.7617C26.6241 18.5646 26.5923 18.4953 26.4399 18.3595L26.2558 18.1953H19.5022H12.7485L12.5644 18.3595ZM29.1386 20.862C29.0082 20.9377 28.869 21.2113 28.869 21.3918C28.869 21.4707 28.9409 21.6157 29.0289 21.7139C29.162 21.8626 29.2302 21.8924 29.4367 21.8924C29.6431 21.8924 29.7113 21.8626 29.8445 21.7139C29.9324 21.6157 30.0044 21.4707 30.0044 21.3918C30.0044 21.204 29.8614 20.9326 29.7236 20.8591C29.5851 20.7851 29.2682 20.7867 29.1386 20.862ZM12.5644 21.3048C12.4121 21.4406 12.3803 21.5099 12.3803 21.707C12.3803 21.9041 12.4121 21.9735 12.5644 22.1093L12.7485 22.2734H15.8672C18.1643 22.2734 19.0252 22.2556 19.1348 22.2058C19.2975 22.1318 19.4454 21.8943 19.4454 21.707C19.4454 21.5198 19.2975 21.2823 19.1348 21.2083C19.0252 21.1585 18.1643 21.1406 15.8672 21.1406H12.7485L12.5644 21.3048ZM21.2683 21.2197C20.7761 21.4919 20.982 22.2734 21.5459 22.2734C21.8335 22.2734 22.1135 21.9967 22.1135 21.7125C22.1135 21.2873 21.6425 21.0127 21.2683 21.2197ZM13.5699 24.1619C12.9494 24.3676 12.5145 24.7446 12.2529 25.3037C12.1178 25.5924 12.0939 25.716 12.0942 26.125C12.0944 26.5332 12.1188 26.6591 12.2545 26.9525C12.4547 27.3856 12.8424 27.7706 13.286 27.9771C13.5751 28.1117 13.6996 28.1357 14.1092 28.1357C14.5187 28.1357 14.6432 28.1117 14.9323 27.9771C15.376 27.7706 15.7636 27.3856 15.9639 26.9525C16.0996 26.6589 16.1239 26.5335 16.1239 26.125C16.1239 25.7165 16.0996 25.5911 15.9639 25.2975C15.6421 24.6015 14.9596 24.141 14.1974 24.1054C13.9644 24.0945 13.702 24.1182 13.5699 24.1619ZM13.7096 25.3462C13.437 25.4834 13.2009 25.8448 13.2009 26.125C13.2009 26.2053 13.2584 26.3846 13.3286 26.5236C13.4661 26.7957 13.8283 27.0312 14.1092 27.0312C14.39 27.0312 14.7522 26.7957 14.8897 26.5236C14.96 26.3846 15.0175 26.2053 15.0175 26.125C15.0175 26.0447 14.96 25.8654 14.8897 25.7264C14.7522 25.4543 14.39 25.2188 14.1092 25.2188C14.0287 25.2188 13.8489 25.2761 13.7096 25.3462ZM17.408 25.6377C17.0275 25.848 17.04 26.4471 17.4285 26.6237C17.6631 26.7304 21.6123 26.7187 21.8215 26.6107C22.1993 26.4157 22.1993 25.8343 21.8215 25.6393C21.6003 25.5252 17.614 25.5237 17.408 25.6377ZM25.9794 29.9416C25.9346 29.9954 25.9191 30.3227 25.9299 30.99L25.9454 31.9603L26.9951 30.9118L28.0447 29.8633H27.0446C26.263 29.8633 26.0302 29.8804 25.9794 29.9416Z" fill="white"/>
</svg>
