<svg width="1201" height="900" viewBox="0 0 1201 900" fill="none" xmlns="http://www.w3.org/2000/svg">
<line x1="102.349" y1="900" x2="102.349" y2="2.16736e-08" stroke="black" stroke-opacity="0.1"/>
<line x1="0.5" y1="900" x2="0.49996" y2="2.16736e-08" stroke="black" stroke-opacity="0.1"/>
<line x1="202.181" y1="900" x2="202.181" y2="2.16736e-08" stroke="black" stroke-opacity="0.1"/>
<line x1="302.013" y1="900" x2="302.013" y2="2.16736e-08" stroke="black" stroke-opacity="0.1"/>
<line x1="401.844" y1="900" x2="401.844" y2="2.16736e-08" stroke="black" stroke-opacity="0.1"/>
<line x1="501.677" y1="900" x2="501.676" y2="2.16736e-08" stroke="black" stroke-opacity="0.1"/>
<line x1="601.509" y1="900" x2="601.509" y2="2.16736e-08" stroke="black" stroke-opacity="0.1"/>
<line x1="701.341" y1="900" x2="701.341" y2="2.16736e-08" stroke="black" stroke-opacity="0.1"/>
<line x1="801.173" y1="900" x2="801.173" y2="2.16736e-08" stroke="black" stroke-opacity="0.1"/>
<line x1="901.004" y1="900" x2="901.004" y2="2.16736e-08" stroke="black" stroke-opacity="0.1"/>
<line x1="1000.84" y1="900" x2="1000.84" y2="2.16736e-08" stroke="black" stroke-opacity="0.1"/>
<line x1="1100.67" y1="900" x2="1100.67" y2="2.16736e-08" stroke="black" stroke-opacity="0.1"/>
<line x1="1200.5" y1="900" x2="1200.5" y2="2.16736e-08" stroke="black" stroke-opacity="0.1"/>
</svg>
