<svg width="62" height="62" viewBox="0 0 62 62" fill="none" xmlns="http://www.w3.org/2000/svg">
<rect width="62" height="62" rx="6" fill="#D78A48"/>
<path fill-rule="evenodd" clip-rule="evenodd" d="M9 17.0781V25.1562H12.5612H16.1225L16.1459 24.0605L16.1694 22.9648L16.741 22.9393C17.2861 22.9149 17.3384 22.9304 17.8642 23.2707C18.9273 23.9588 20.1395 24.4009 21.2958 24.5224L21.8295 24.5784V29.2501V33.9219H36.8672H51.905L51.9607 27.2832C51.9913 23.6319 52.0075 18.0148 51.9966 14.8008C51.9857 11.5867 51.9664 10.2816 51.9536 11.9004L51.9304 14.8438H45.2069H38.4833L36.1728 12.4967C34.0669 10.3574 33.803 10.1186 33.1915 9.79827C32.8226 9.605 32.2566 9.35647 31.9337 9.24604C31.3471 9.04537 31.3437 9.0452 26.0735 9.01899C22.542 9.00138 20.657 9.0232 20.3663 9.08499C20.1277 9.13578 19.4283 9.42883 18.8122 9.73614C17.5498 10.3659 17.1323 10.4895 16.5396 10.4089L16.1275 10.3528V9.67641V9H12.5637H9V17.0781ZM9.04025 17.1211C9.04025 21.5641 9.0504 23.369 9.06289 21.1321C9.0753 18.8953 9.0753 15.2601 9.06289 13.054C9.0504 10.8479 9.04025 12.6781 9.04025 17.1211ZM10.446 17.0566L10.4674 23.6523L12.5847 23.6753L14.702 23.6982V17.0796V10.4609H12.5632H10.4245L10.446 17.0566ZM20.5298 10.58C20.3453 10.6414 19.7691 10.9111 19.2495 11.1793C18.1353 11.7545 17.5693 11.9219 16.7388 11.9219H16.1275V16.6914V21.4609H16.9634H17.7993L18.3908 21.8531C19.4405 22.549 20.3152 22.8976 21.3892 23.0482L21.8295 23.1099V21.3416V19.5732L21.3892 19.3475C20.8549 19.0734 20.0686 18.4824 20.0686 18.3548C20.0686 18.28 20.4045 17.8185 20.8373 17.2988C20.8763 17.2521 21.0355 17.3245 21.22 17.4732C22.0274 18.1236 22.7431 18.3834 23.714 18.3788C24.7177 18.374 25.5435 18.0435 26.3003 17.3438L26.6202 17.0478L28.8158 19.2942C31.0277 21.5574 31.3299 21.8047 31.8837 21.8047C32.7441 21.8047 33.4152 20.9593 33.2729 20.0547C33.2215 19.7278 32.9999 19.4759 30.5222 16.9273L27.8275 14.1553L28.3499 13.6199L28.8724 13.0844L29.7337 13.9641L30.5949 14.8438H33.5275H36.46L34.9516 13.2933C33.2734 11.5685 32.6679 11.0962 31.6822 10.7438L31.0114 10.5039L25.9383 10.4863C21.9712 10.4725 20.792 10.4929 20.5298 10.58ZM32.73 17.0348L33.4394 17.7656H39.4452H45.451L45.5017 18.5016C45.6271 20.3233 46.7997 21.4609 48.5518 21.4609H49.0816V24.3664V27.2718L48.3011 27.3585C47.3549 27.4637 46.8439 27.6954 46.2999 28.2664C45.8146 28.7758 45.5598 29.4323 45.4978 30.334L45.452 31H36.8691H28.2861V30.3587C28.2861 29.515 28.0512 28.8683 27.5418 28.3102C27.0034 27.7204 26.4929 27.4779 25.5456 27.3625L24.7643 27.2673V24.3763V21.4852L25.4692 21.4401C25.9667 21.4083 26.3058 21.3331 26.6222 21.1847C27.0573 20.9805 27.6992 20.4463 27.6992 20.2883C27.6992 20.2454 27.4421 19.9487 27.1278 19.6291L26.5563 19.048L25.9305 19.3526C25.3 19.6595 24.2736 19.9141 23.6669 19.9141H23.3388V26.1875V32.4609H36.9234H50.508L50.4866 24.4043L50.4652 16.3477L41.2429 16.3258L32.0205 16.3039L32.73 17.0348ZM34.618 19.4629C34.6515 19.5456 34.6972 19.884 34.7196 20.2148C34.7513 20.6835 34.7232 20.9156 34.5926 21.2655L34.4251 21.7145L34.7964 21.4528C35.6431 20.8556 36.557 20.6243 37.4749 20.7746C40.381 21.2504 41.5704 24.8981 39.5166 27.0364C38.1273 28.483 35.9151 28.5325 34.4723 27.1493C33.746 26.453 33.3173 25.4452 33.3173 24.4337C33.3173 23.8761 33.4967 23.1034 33.7032 22.7723C33.8074 22.6051 33.7486 22.622 33.2558 22.9012C32.7122 23.2092 32.6549 23.2227 31.8918 23.2226C30.8353 23.2225 30.5041 23.0638 29.5365 22.0934L28.7964 21.351L28.3273 21.7904C27.8347 22.2519 26.9714 22.7284 26.4802 22.8102L26.1898 22.8585V24.3872V25.916L26.4623 25.974C26.6122 26.006 27.0094 26.1657 27.3449 26.329C28.4012 26.8429 29.2571 27.8808 29.5845 29.0449L29.7235 29.5391H36.9116H44.0995L44.2032 29.1419C44.59 27.6595 45.842 26.3773 47.2598 26.0116L47.6599 25.9083L47.6371 24.4103L47.6142 22.9123L47.0692 22.7238C46.3121 22.4619 45.8067 22.138 45.2599 21.5648C44.7925 21.0747 44.294 20.1661 44.1776 19.5918L44.121 19.3125H39.3391C34.8176 19.3125 34.5605 19.3207 34.618 19.4629ZM36.1545 22.3543C35.2916 22.6702 34.6595 23.7262 34.7881 24.6369C34.9511 25.7916 35.7689 26.5429 36.881 26.5599C39.1396 26.5943 39.8516 23.4136 37.804 22.4364C37.3251 22.2079 36.6469 22.1741 36.1545 22.3543ZM44.8051 39.4648C44.8051 40.1029 44.7726 40.625 44.7328 40.625C44.6931 40.625 44.1931 40.3387 43.6218 39.9889C42.1215 39.0702 42.0677 39.059 39.3752 39.0991L37.1326 39.1326L32.7303 40.3576C30.3091 41.0313 28.1725 41.6527 27.9824 41.7386C27.5217 41.9466 26.9854 42.4543 26.7153 42.9381C26.5943 43.1547 26.4893 43.3418 26.482 43.3539C26.4747 43.3659 25.4154 42.7917 24.128 42.0779C18.3529 38.8754 18.4699 38.9299 17.553 39.015C16.5467 39.1085 15.6486 39.7558 15.2175 40.6982C15.0318 41.1042 14.9955 41.3034 14.9955 41.9159C14.9955 42.5656 15.0256 42.7109 15.263 43.2049C15.4103 43.5111 15.6556 43.8839 15.8081 44.0334C16.1544 44.3724 29.5153 52.5673 30.089 52.7925C30.4876 52.949 30.7969 52.957 36.3779 52.957H42.2476L43.4433 52.4629C44.1009 52.1911 44.6763 51.9688 44.722 51.9688C44.7677 51.9688 44.8051 52.2008 44.8051 52.4844V53H48.3689H51.9326V45.6523V38.3047H48.3689H44.8051V39.4648ZM46.2306 45.6953V51.5391H48.3689H50.5071V45.6953V39.8516H48.3689H46.2306V45.6953ZM17.3563 40.5785C16.467 40.9034 16.1306 41.9492 16.6576 42.7503C16.782 42.9394 17.3486 43.3405 18.4334 44.007C27.3174 49.4656 30.3988 51.3253 30.7254 51.4257C31.0386 51.5219 32.117 51.5395 36.5113 51.52L41.9122 51.4961L43.2539 50.9358C43.9918 50.6276 44.6427 50.345 44.7003 50.3077C44.7817 50.2551 44.8051 49.3659 44.8051 46.3374V42.435L43.4006 41.579C42.6281 41.1081 41.8219 40.6783 41.6091 40.6237C41.3522 40.5579 40.5909 40.5358 39.3451 40.5581L37.468 40.5916L33.0813 41.8067C30.6685 42.4751 28.5743 43.0939 28.4274 43.1818C28.0856 43.3863 27.7862 43.9279 27.7844 44.3445C27.7817 44.9899 28.1978 45.5771 28.7966 45.773C29.1835 45.8995 29.186 45.8989 33.5689 44.704C35.5289 44.1697 37.2047 43.7197 37.2929 43.7041C37.4283 43.6802 37.4798 43.7794 37.6231 44.34C37.7166 44.7052 37.769 45.0288 37.7395 45.0589C37.6854 45.1145 34.131 46.1096 31.1371 46.9075C29.2529 47.4097 28.8208 47.4269 27.981 47.0331C27.3799 46.7512 26.7593 46.1 26.5593 45.5412C26.4797 45.3187 26.3734 45.0909 26.3231 45.0351C26.2014 44.8995 18.566 40.6742 18.2187 40.5501C17.8772 40.4281 17.757 40.4321 17.3563 40.5785Z" fill="white"/>
</svg>
