<svg width="62" height="62" viewBox="0 0 62 62" fill="none" xmlns="http://www.w3.org/2000/svg">
<rect width="62" height="62" rx="6" fill="#D78A48"/>
<path fill-rule="evenodd" clip-rule="evenodd" d="M49.7391 10.0768C49.5013 10.1421 47.859 11.7079 41.9034 17.5479L34.3687 24.9363L34.0183 24.66C33.5504 24.2908 32.9758 24.2264 32.4367 24.4825C31.8962 24.7394 29.6402 26.9992 29.5673 27.3567C29.5334 27.5236 29.4722 27.6082 29.4042 27.5825C29.0562 27.4514 27.7847 27.3444 27.137 27.3917C25.2849 27.5268 23.6677 28.2094 22.3497 29.4125C21.5726 30.122 21.2835 30.5048 20.5529 31.7918C20.237 32.3483 19.7657 33.0784 19.5053 33.4141C18.5975 34.5849 17.1126 35.7834 15.7384 36.4543C14.985 36.8222 14.1568 37.0983 12.4908 37.5372C11.6764 37.7516 10.9044 37.9806 10.7751 38.0459C10.4682 38.201 10.2794 38.5716 10.2794 39.0189C10.2794 39.3765 10.2903 39.3889 12.6205 41.6815C13.9081 42.9484 15.0279 44.0056 15.1089 44.0309C15.19 44.0562 15.5682 43.9929 15.9494 43.8904C16.3305 43.7878 16.6644 43.7256 16.6913 43.7521C16.7183 43.7785 16.66 44.0812 16.5617 44.4247C16.4635 44.7683 16.3831 45.1215 16.3831 45.2097C16.3831 45.3074 17.4318 46.4012 19.0679 48.0099L21.7526 50.6499H15.6678C10.3949 50.6499 9.5494 50.6671 9.3307 50.778C8.8877 51.0029 8.89036 51.6706 9.33517 51.8915C9.50452 51.9756 13.3786 51.9978 28.0916 51.9987L46.6346 52L46.8686 51.8024C47.1648 51.5524 47.1849 51.1433 46.9142 50.8772C46.7461 50.712 46.6108 50.6876 45.6569 50.6499L44.5881 50.6077L44.889 50.1676C45.4943 49.2825 45.71 48.2271 45.4937 47.2102C45.237 46.0028 44.4276 44.9343 43.3813 44.4211L42.8501 44.1605L42.8343 43.1652C42.8193 42.2109 42.8058 42.1437 42.5093 41.5369C41.4689 39.4087 39.0399 38.5889 36.9114 39.6475C36.0043 40.0986 35.1303 41.1494 34.8736 42.0972C34.7892 42.4088 34.7445 42.4529 34.4609 42.5052C33.1078 42.7543 31.7423 44.0457 31.3884 45.411L31.288 45.7981L30.4337 45.8534C29.1442 45.9367 28.4209 46.2617 27.578 47.1364C26.8022 47.9416 26.3671 49.1436 26.4816 50.1647L26.536 50.6499H25.6356H24.7354L25.0372 49.5319C25.4427 48.0299 25.6186 47.524 26.0129 46.7263C26.9102 44.9109 28.4556 43.2412 30.1342 42.2732C30.5147 42.0539 31.1397 41.6941 31.5233 41.4736C33.2335 40.4908 34.5014 38.8602 35.0504 36.9382C35.2065 36.3918 35.2441 36.0381 35.2482 35.0819C35.251 34.4321 35.2227 33.7255 35.1853 33.5114C35.1183 33.1276 35.1213 33.1207 35.4002 33.0098C35.7622 32.8657 37.9086 30.8091 38.1942 30.3326C38.5582 29.7255 38.4606 28.9438 37.9662 28.5046L37.7815 28.3405L45.2561 20.995C49.3672 16.9549 52.7927 13.5279 52.8683 13.3794C53.043 13.0364 53.044 12.5724 52.8707 12.2141C52.7964 12.0603 52.3192 11.536 51.8103 11.0489C50.7244 10.0095 50.451 9.88121 49.7391 10.0768ZM42.7101 18.6078L35.2947 25.8864L36.07 26.6439L36.8454 27.4014L44.2801 20.1044L51.7148 12.8075L50.9651 12.0682C50.5528 11.6616 50.1952 11.329 50.1705 11.329C50.1458 11.329 46.7886 14.6044 42.7101 18.6078ZM23.2939 13.948C22.178 14.1001 21.2267 14.6582 20.5534 15.5559C19.8575 16.4838 19.6144 17.8417 19.9445 18.9563L20.0881 19.441L19.4834 19.9904C18.7379 20.6679 18.3247 21.4275 18.1742 22.3972C18.0857 22.9682 18.0908 23.0698 18.2182 23.2607C18.3817 23.5056 18.6857 23.6081 19.0109 23.528C19.2591 23.4668 19.478 23.0514 19.478 22.6418C19.478 21.8759 20.145 20.944 21.0268 20.4778C21.2835 20.3421 21.5519 20.1281 21.6235 20.0022C21.746 19.7865 21.7369 19.7408 21.4638 19.2006C21.0913 18.4637 21.0185 17.7314 21.2462 17.0126C21.3705 16.6204 21.5104 16.4128 21.9234 16.0074C22.5673 15.3753 23.1307 15.1665 24.0221 15.2293C25.3953 15.3261 26.3819 16.3119 26.5194 17.7244C26.5921 18.4717 26.7205 18.6175 27.3819 18.7035C28.3798 18.8335 29.178 19.4105 29.582 20.2942C30.0355 21.286 29.8562 22.4178 29.1139 23.2475C28.7545 23.6494 27.941 24.0437 27.3209 24.1165C26.7196 24.1871 26.4415 24.402 26.4415 24.7962C26.4415 25.8708 28.7405 25.4531 30.0089 24.1479C31.434 22.6814 31.5331 20.4629 30.2446 18.8719C29.8131 18.3391 28.9781 17.7814 28.3317 17.5944L27.844 17.4534L27.7432 16.9859C27.3256 15.0484 25.3112 13.673 23.2939 13.948ZM31.9208 26.6662C31.3186 27.2585 30.8259 27.7999 30.8259 27.8693C30.8259 28.0077 34.6857 31.8333 34.8254 31.8333C34.9652 31.8333 37.1016 29.6915 37.1016 29.5514C37.1016 29.4143 33.2372 25.5892 33.0986 25.5892C33.0529 25.5892 32.5229 26.0738 31.9208 26.6662ZM13.3833 27.9112C11.8831 28.3245 10.7253 29.5726 10.4497 31.0738C10.2347 32.2445 10.6306 33.5558 11.4623 34.4279C11.7899 34.7714 12.2154 34.8038 12.4996 34.5069C12.7589 34.236 12.7333 33.9385 12.4173 33.5536C11.9429 32.9753 11.7426 32.4512 11.7417 31.785C11.7406 31.0067 11.9263 30.4962 12.3975 29.9816C13.4478 28.8352 15.1584 28.7743 16.3609 29.8406C16.7943 30.225 17.0901 30.2376 17.5196 29.8901C17.9651 29.5297 18.3925 29.3723 19.1212 29.3005C19.8553 29.2282 20.1084 29.0532 20.1084 28.6181C20.1084 28.2509 19.7544 27.9513 19.3228 27.9532C18.7901 27.9557 17.8631 28.1845 17.414 28.4244L16.9886 28.6516L16.6428 28.427C15.7545 27.85 14.3894 27.634 13.3833 27.9112ZM26.802 28.7173C25.2076 28.9205 23.6488 29.7512 22.6774 30.9155C22.4398 31.2002 22.0448 31.7984 21.7995 32.2449C20.6974 34.2509 19.6512 35.4405 17.9116 36.6655C16.6314 37.567 15.3738 38.1052 13.1999 38.6817C12.4447 38.882 11.8268 39.0664 11.8268 39.0914C11.8268 39.1165 12.0714 39.3749 12.3703 39.6657L12.9138 40.1944L14.541 39.7648C16.7674 39.1769 17.1571 39.0475 18.1318 38.5733C19.1068 38.099 19.3871 38.0639 19.6437 38.3841C19.8638 38.6586 19.8719 38.9565 19.6648 39.1598C19.1583 39.6569 17.6639 40.265 15.5879 40.8188C14.7486 41.0426 14.062 41.2493 14.062 41.2779C14.062 41.3065 14.3719 41.6324 14.7507 42.0019L15.4394 42.6739L16.5939 42.3848C17.5614 42.1427 17.7842 42.1119 17.9697 42.1948C18.4066 42.3903 18.4212 42.6084 18.0797 43.838L17.7697 44.9543L19.1571 46.3224C19.9202 47.0749 20.5631 47.6722 20.5859 47.6499C20.6087 47.6275 20.8094 46.9549 21.0319 46.1552C21.6544 43.9179 22.1382 42.8031 22.5957 42.552C22.8068 42.4361 22.855 42.4362 23.0672 42.5525C23.1972 42.6238 23.3541 42.7851 23.4157 42.911C23.5174 43.1187 23.4966 43.2083 23.1913 43.8783C23.0062 44.2845 22.7926 44.8066 22.7167 45.0387C22.5063 45.6823 21.7132 48.595 21.7132 48.7246C21.7132 48.7875 22.1001 49.2172 22.5729 49.6796C23.0457 50.1419 23.4326 50.4911 23.4326 50.4555C23.4326 50.2117 24.3541 47.2023 24.5977 46.6504C25.6183 44.3392 27.6382 42.1261 29.7731 40.9804C30.9314 40.3589 31.5666 39.9375 32.0623 39.4619C33.7794 37.8143 34.3963 35.4022 33.7014 33.0536C33.5773 32.6344 33.4523 32.4491 32.9515 31.9419C32.4479 31.4319 32.2654 31.3058 31.8246 31.1635C30.6778 30.7934 29.3561 30.7444 28.2487 31.0311C27.7603 31.1576 27.4468 31.0974 27.2464 30.8385C27.0815 30.6254 27.1058 30.2531 27.2966 30.0658C27.5846 29.7831 28.7108 29.5563 29.8307 29.5555L30.512 29.555L30.3086 29.3425C30.0596 29.0824 29.2593 28.8303 28.313 28.7137C27.5394 28.6186 27.5777 28.6185 26.802 28.7173ZM39.4404 32.2409C37.9692 32.757 37.266 34.3066 37.8762 35.6874C38.1017 36.1975 38.6711 36.7627 39.1884 36.9899C39.8084 37.2621 40.7552 37.2607 41.3344 36.9868C41.8499 36.7429 42.364 36.2407 42.6197 35.7312C42.9008 35.1713 42.902 34.1512 42.6226 33.5945C42.0342 32.4223 40.6282 31.8242 39.4404 32.2409ZM39.923 33.434C39.602 33.5303 39.3398 33.7235 39.1531 34.0014C38.9383 34.3212 38.9412 34.9799 39.159 35.3251C39.6404 36.0881 40.8507 36.1033 41.3176 35.352C41.5977 34.9014 41.616 34.5843 41.388 34.1347C41.1007 33.5681 40.4745 33.2686 39.923 33.434ZM23.1067 33.5686C23.0009 33.6413 22.8328 33.8596 22.7329 34.0538C22.3563 34.7862 21.6329 35.786 20.9967 36.4538C20.2474 37.2401 20.1684 37.497 20.5583 37.8797C20.9163 38.231 21.2112 38.1173 21.9552 37.3411C22.8719 36.3848 24.1203 34.4959 24.1203 34.0653C24.1203 33.8794 23.654 33.4365 23.4583 33.4365C23.3707 33.4365 23.2124 33.496 23.1067 33.5686ZM46.7615 39.1818C46.6132 39.224 46.3052 39.3819 46.0769 39.5328C44.7889 40.3841 44.907 42.3455 46.2908 43.0847C47.7706 43.8752 49.4812 42.8871 49.4812 41.2416C49.4812 39.8295 48.1169 38.7963 46.7615 39.1818ZM38.1272 40.5507C36.9739 40.8696 36.264 41.6527 36.076 42.8135C35.9662 43.4921 35.7286 43.7308 35.1635 43.7308C34.9539 43.7308 34.5864 43.8039 34.3468 43.8932C33.2939 44.2859 32.6649 45.1773 32.555 46.4327C32.4707 47.3952 32.2844 47.5102 31.2749 47.2221C29.6301 46.7528 27.9454 47.9197 27.8351 49.6045C27.8132 49.9406 27.8202 50.3133 27.8507 50.4328L27.9062 50.6499L35.0185 50.6498L42.1308 50.6498L42.6466 50.4067C43.2859 50.1055 43.7289 49.6597 44.028 49.017C44.2319 48.5787 44.2536 48.4458 44.2209 47.8347C44.1911 47.2771 44.1365 47.0603 43.934 46.6952C43.505 45.9216 43.001 45.5715 41.8306 45.2344C41.2536 45.0681 41.1691 44.8338 41.4079 44.0622C41.7505 42.955 41.487 41.9476 40.6611 41.2067C39.9661 40.5833 38.9557 40.3217 38.1272 40.5507ZM46.7565 40.6436C46.5561 40.8127 46.5152 40.9142 46.5152 41.2416C46.5152 41.569 46.5561 41.6705 46.7565 41.8396C47.3072 42.3045 48.1916 41.9359 48.1916 41.2416C48.1916 40.5472 47.3072 40.1787 46.7565 40.6436ZM10.6662 44.3538C9.03058 45.1128 8.9998 47.3087 10.6131 48.136C11.425 48.5523 12.3244 48.4302 13.0295 47.8079C13.5198 47.3753 13.7345 46.9014 13.735 46.2512C13.7361 44.6908 12.1086 43.6846 10.6662 44.3538ZM36.6549 45.452C36.1173 45.5941 35.6119 45.9331 35.2871 46.3693C34.6894 47.172 34.5677 48.2088 35.0417 48.4578C35.5085 48.7029 35.9485 48.4386 36.0587 47.8468C36.1893 47.1452 36.5887 46.7592 37.2992 46.6476C37.7788 46.5724 37.9613 46.3944 37.9613 46.0021C37.9613 45.7587 37.908 45.6426 37.7348 45.5089C37.4786 45.3111 37.2367 45.2984 36.6549 45.452ZM11.0349 45.6629C10.8042 45.8653 10.7561 45.9685 10.7561 46.2622C10.7561 46.5558 10.8042 46.6591 11.0349 46.8614C11.346 47.1342 11.6266 47.1682 12.0005 46.9786C12.5074 46.7212 12.5945 46.0745 12.1773 45.665C11.8349 45.3289 11.4166 45.3282 11.0349 45.6629Z" fill="white"/>
</svg>
