<svg width="40" height="40" viewBox="0 0 40 40" fill="none" xmlns="http://www.w3.org/2000/svg">
<rect width="40" height="40" rx="20" fill="#D78A48"/>
<path fill-rule="evenodd" clip-rule="evenodd" d="M28.7282 12.028C28.5635 12.0848 21.2073 14.6621 15.908 16.5198C12.6363 17.6666 9.86868 18.6407 9.75783 18.6843C9.48469 18.7918 9.18172 19.0008 9.07953 19.1522C8.90989 19.4035 9.01512 19.6606 9.36182 19.8419C9.48486 19.9062 10.5638 20.2328 12.045 20.6541L14.5224 21.3587L20.0766 18.1763C23.1315 16.4259 25.7047 14.963 25.795 14.9254C25.8852 14.8877 26.0083 14.8565 26.0685 14.856C26.3862 14.8536 26.3874 14.9935 26.0719 15.2735C25.9421 15.3887 23.9253 17.0509 21.5899 18.9672C19.2546 20.8836 17.3192 22.4724 17.289 22.4981C17.2486 22.5324 17.1925 23.0834 17.0761 24.5869C16.9891 25.7102 16.9087 26.72 16.8975 26.831L16.8769 27.0328L17.0554 27.0144C17.3977 26.9791 17.5587 26.8637 18.8774 25.7094C19.5855 25.0895 20.1798 24.5824 20.1982 24.5824C20.2166 24.5824 21.2434 25.2607 22.48 26.0898C23.7166 26.9189 24.8155 27.6553 24.9222 27.7261C25.179 27.8966 25.5127 28 25.8064 28C26.2202 28 26.5232 27.756 26.6978 27.2823C26.7312 27.1916 27.4878 23.9872 28.3793 20.1614C29.4671 15.4924 30 13.1329 30 12.9847C30 12.5586 29.8165 12.2202 29.507 12.0757C29.3503 12.0025 28.885 11.974 28.7282 12.028Z" fill="white"/>
</svg>
