<svg width="46" height="46" viewBox="0 0 46 46" fill="none" xmlns="http://www.w3.org/2000/svg">
<rect width="46" height="46" rx="4" fill="#D78A48"/>
<path fill-rule="evenodd" clip-rule="evenodd" d="M22.5906 6.08723C22.0047 6.2419 21.4756 6.67608 21.1542 7.26604C20.9979 7.5531 20.9768 7.66492 20.9766 8.21033C20.9763 8.70729 21.0045 8.88892 21.1198 9.13353C21.334 9.58809 21.7645 10.0074 22.2499 10.2346L22.6742 10.4331L22.6555 11.2243L22.6369 12.0154L22.4044 12.0743C20.5321 12.5487 18.5324 13.5273 17.1233 14.659C16.5672 15.1055 15.5029 16.1444 15.2085 16.5279L14.9976 16.8026L12.4832 16.8047L9.9689 16.8067L9.74304 17.0281C9.42498 17.3399 9.44962 17.7097 9.80728 17.9938C9.93456 18.0948 10.1566 18.1064 11.9917 18.1077C13.1151 18.1085 14.0344 18.1188 14.0344 18.1306C14.0344 18.1424 13.8733 18.4574 13.6766 18.8307C13.4798 19.2039 13.2219 19.7511 13.1036 20.0466L12.8883 20.5839H9.27412C5.3924 20.5839 5.34364 20.5878 5.10835 20.9171C4.93802 21.1554 4.97124 21.462 5.19377 21.7062L5.38761 21.9189L8.95101 21.9368C12.2892 21.9537 12.5121 21.9619 12.4791 22.0671C12.4196 22.2561 12.2537 23.3874 12.207 23.9215L12.163 24.4262H10.6375C9.4471 24.4262 9.07178 24.4465 8.92895 24.519C8.73671 24.6165 8.58717 24.8635 8.58717 25.0837C8.58717 25.2668 8.75903 25.5719 8.90026 25.6394C8.96556 25.6705 9.73547 25.7107 10.6112 25.7286L12.2035 25.7612L12.2833 26.445C12.3272 26.8211 12.4103 27.3432 12.468 27.6052C12.5257 27.8672 12.5729 28.1079 12.5729 28.14C12.5729 28.1729 11.586 28.2066 10.3088 28.2172L8.04471 28.2359L7.85094 28.4486C7.6284 28.6928 7.59525 28.9994 7.76551 29.2377C7.99097 29.5532 8.14549 29.5709 10.6778 29.5709H13.0385L13.2516 30.0431C14.5774 32.9799 16.7381 35.2207 19.6051 36.6323C21.5109 37.5706 23.3682 37.9972 25.5598 38C27.8608 38.0029 29.6607 37.5829 31.7105 36.5648C33.0217 35.9136 33.2957 35.6676 33.1977 35.2301C33.1756 35.1315 33.0806 34.9754 32.9866 34.8833C32.7276 34.6294 32.4451 34.6595 31.8432 35.0053C30.6094 35.7141 29.2803 36.2146 27.907 36.4874C27.2513 36.6176 26.957 36.6369 25.6263 36.6369C24.2913 36.6369 24.0023 36.6178 23.3375 36.4859C20.0346 35.8302 17.2525 34.0045 15.4798 31.3293C12.8536 27.3662 12.8815 22.2112 15.5501 18.2987C17.0534 16.0948 19.1962 14.4889 21.7525 13.6505C28.0817 11.5745 34.9174 14.904 37.0163 21.0849C38.1624 24.4601 37.751 28.0342 35.8629 31.104C35.6001 31.5312 35.574 31.697 35.7242 31.9818C35.8468 32.2144 36.0104 32.3061 36.3022 32.3061C36.631 32.3061 36.7808 32.168 37.1886 31.4888C38.4584 29.3736 39.0817 26.9203 38.9914 24.3936C38.9521 23.2957 38.8494 22.5882 38.5779 21.5473C37.7783 18.4808 35.7594 15.7015 33.031 13.9111C31.8968 13.1669 30.0661 12.3716 28.8979 12.1156L28.5159 12.0319V11.206V10.3801L28.765 10.3042C29.1317 10.1926 29.6244 9.8099 29.8506 9.46084C30.6905 8.1652 30.0742 6.53417 28.5805 6.09928C28.2816 6.01227 27.8092 5.99684 25.5643 6.00048C23.6402 6.00368 22.8162 6.02771 22.5906 6.08723ZM23.0032 7.34516C22.6033 7.42181 22.2712 7.83587 22.2718 8.25709C22.2722 8.50254 22.4896 8.835 22.7526 8.99214C22.959 9.11555 23.0917 9.12161 25.593 9.12161C28.077 9.12161 28.2284 9.11484 28.4293 8.99468C28.8578 8.73855 28.9949 8.30964 28.792 7.85996C28.5517 7.32738 28.581 7.33246 25.6927 7.3223C24.3043 7.31748 23.094 7.32771 23.0032 7.34516ZM23.9987 11.0921V11.7596H25.593H27.1873V11.0921V10.4245H25.593H23.9987V11.0921ZM24.8291 14.7985C20.9172 15.03 17.3953 17.6192 15.9364 21.3362C15.2304 23.1348 15.1002 25.415 15.5944 27.3242C16.6311 31.3297 20.0738 34.3358 24.2481 34.8806C27.422 35.2947 30.6217 34.2274 32.874 32.0034C34.1328 30.7604 35.0248 29.2754 35.5178 27.6019C36.094 25.6462 35.9903 23.2231 35.2497 21.3362C34.1976 18.6557 32.0512 16.5037 29.4093 15.4804C27.9227 14.9046 26.533 14.6977 24.8291 14.7985ZM24.5966 16.1203C24.5418 16.1332 24.2728 16.1791 23.9987 16.2225C23.7247 16.2657 23.1991 16.3974 22.8306 16.5151C19.7156 17.51 17.4295 20.0508 16.778 23.2421C16.6948 23.6496 16.6632 24.1166 16.6646 24.9146C16.6664 25.8762 16.6896 26.1178 16.8412 26.7527C17.6799 30.2667 20.4238 32.8495 24.032 33.5212C24.8515 33.6738 26.3486 33.6705 27.1873 33.5143C29.0058 33.1755 30.5744 32.3681 31.8749 31.1014C33.1664 29.8435 33.9267 28.5049 34.3449 26.7527C34.4965 26.1178 34.5197 25.8762 34.5215 24.9146C34.5229 24.1166 34.4913 23.6496 34.4081 23.2421C33.6963 19.7553 31.0525 17.0819 27.5195 16.2762C27.1127 16.1834 26.6391 16.1404 25.8255 16.1222C25.2044 16.1082 24.6514 16.1074 24.5966 16.1203ZM25.2443 17.3329C25.0394 17.4499 24.9287 17.7566 24.9287 18.2079C24.9287 18.4449 24.9622 18.7027 25.003 18.781C25.2174 19.1922 25.7372 19.2803 26.0632 18.9608C26.2478 18.7797 26.2573 18.7429 26.2573 18.2068C26.2573 17.6708 26.2478 17.6339 26.0632 17.4529C25.915 17.3076 25.8088 17.263 25.6148 17.2645C25.4749 17.2656 25.3082 17.2963 25.2443 17.3329ZM29.9441 19.7309C29.8345 19.7987 29.0159 20.572 28.125 21.4494L26.5051 23.0446L26.2837 22.9539C26.005 22.8397 25.1603 22.8407 24.8955 22.9555L24.6962 23.0419L23.8602 22.2362C23.0556 21.4608 23.0135 21.4305 22.7424 21.4305C22.3722 21.4305 22.0723 21.7007 22.0723 22.0344C22.0723 22.3203 22.2802 22.5949 23.0879 23.3762L23.7192 23.9868L23.618 24.278C23.4742 24.6917 23.5325 25.3438 23.7507 25.7612C24.126 26.4794 24.7702 26.8656 25.593 26.8656C26.4156 26.8656 27.0591 26.48 27.436 25.7612C27.65 25.3529 27.7105 24.6519 27.5651 24.2634L27.4677 24.0029L29.1875 22.3045C30.8892 20.6241 30.9074 20.6033 30.9074 20.3322C30.9074 19.9958 30.7647 19.7694 30.4945 19.677C30.2198 19.5831 30.1759 19.5874 29.9441 19.7309ZM18.3066 24.2336C17.8232 24.3796 17.672 24.9121 18.009 25.2818C18.1679 25.4562 18.255 25.4929 18.5705 25.5185C19.3666 25.5833 19.7473 25.3718 19.7473 24.8646C19.7473 24.636 19.7095 24.5453 19.5534 24.3987C19.3913 24.2464 19.2908 24.2128 18.939 24.1931C18.7076 24.1802 18.4231 24.1984 18.3066 24.2336ZM25.125 24.3448C24.7017 24.7156 24.8421 25.3789 25.3771 25.5361C26.1317 25.7577 26.6518 24.8282 26.0507 24.3324C25.7685 24.0996 25.3992 24.1045 25.125 24.3448ZM31.633 24.4211C31.3788 24.6703 31.3639 25.0499 31.5977 25.3163C31.7407 25.4794 31.8072 25.5 32.2637 25.5226C32.8516 25.5517 33.0937 25.4755 33.2529 25.2111C33.3917 24.9808 33.395 24.8017 33.2649 24.5551C33.1213 24.2828 32.9775 24.2308 32.3681 24.2308C31.8588 24.2308 31.8158 24.2419 31.633 24.4211ZM5.42435 28.2647C5.20693 28.3546 5 28.6554 5 28.8814C5 29.1474 5.16102 29.3665 5.44049 29.481C5.63294 29.5598 5.69565 29.5598 5.88809 29.481C6.35037 29.2917 6.47134 28.8149 6.1459 28.4647C5.9498 28.2538 5.65107 28.1709 5.42435 28.2647ZM25.3531 30.6091C25.0496 30.7347 24.9287 30.9878 24.9287 31.4978C24.9287 32.0742 25.0089 32.2668 25.3064 32.4052C25.6017 32.5425 25.8742 32.482 26.0895 32.2313C26.238 32.0582 26.2573 31.9764 26.2573 31.5207C26.2573 31.05 26.2417 30.9888 26.0747 30.8091C25.8786 30.5982 25.5798 30.5154 25.3531 30.6091ZM34.3875 33.085C34.1649 33.1754 33.9631 33.4745 33.9631 33.7141C33.9631 34.0369 34.27 34.351 34.5854 34.351C35.0569 34.351 35.4 33.883 35.2344 33.4655C35.1163 33.1675 34.6738 32.9687 34.3875 33.085Z" fill="white"/>
</svg>
