<svg width="40" height="40" viewBox="0 0 40 40" fill="none" xmlns="http://www.w3.org/2000/svg">
<rect width="40" height="40" rx="20" fill="#D78A48"/>
<path fill-rule="evenodd" clip-rule="evenodd" d="M19.1922 10.0116C18.1845 10.1263 17.6047 10.2461 16.8511 10.4955C15.2998 11.009 14.0058 11.8187 12.8433 13.0034C11.3167 14.559 10.3912 16.4601 10.0569 18.7267C9.98829 19.192 9.98787 20.6755 10.0562 21.2092C10.2492 22.7161 10.791 24.2039 11.5882 25.4158C11.736 25.6405 11.8569 25.8461 11.8569 25.8727C11.8569 25.8993 11.5851 26.7377 11.2529 27.7359C10.9206 28.7341 10.6545 29.5565 10.6614 29.5634C10.6684 29.5704 11.5299 29.3018 12.576 28.9666L14.478 28.357L14.8355 28.5735C17.0101 29.8902 19.61 30.3143 22.1506 29.7668C22.6404 29.6612 23.5602 29.3567 24.0303 29.1444C26.6063 27.9812 28.578 25.7936 29.4558 23.1248C29.6691 22.4763 29.819 21.8025 29.8821 21.2092C29.9061 20.9834 29.9424 20.7237 29.9628 20.632C30.0135 20.4041 30.0119 19.2815 29.9609 19.3131C29.937 19.3279 29.9219 19.2678 29.9219 19.1587C29.9219 18.6803 29.7126 17.6532 29.4554 16.8697C28.5802 14.2034 26.6064 12.0133 24.0303 10.8501C23.2848 10.5134 22.314 10.2323 21.3897 10.0854C21.0257 10.0275 19.5017 9.97632 19.1922 10.0116ZM15.8842 14.6066C15.6789 14.6409 15.4216 14.7515 15.2685 14.8714C15.2242 14.9061 15.0871 15.0478 14.9638 15.1863C14.1551 16.0948 13.9632 17.4223 14.452 18.7267C14.8712 19.845 16.0463 21.4765 17.3242 22.7143C18.4394 23.7945 19.4473 24.444 20.8309 24.9744C22.4336 25.5887 23.2938 25.7147 24.0878 25.4515C24.8293 25.2056 25.4424 24.7628 25.6853 24.2977C25.9064 23.8742 26.0602 22.9549 25.9457 22.7405C25.8999 22.6548 24.7995 22.0802 23.8442 21.6432C23.0371 21.274 22.9483 21.3008 22.3946 22.0798C22.2607 22.2684 22.0666 22.5147 21.9634 22.6271L21.7758 22.8316H21.4886C21.2162 22.8316 21.176 22.8192 20.7026 22.5888C19.9056 22.2009 19.3029 21.7807 18.6705 21.1723C18.0233 20.5496 17.1633 19.362 17.1633 19.091C17.1633 18.9725 17.2879 18.7969 17.6854 18.3553C18.03 17.9723 18.1996 17.6693 18.1611 17.5054C18.1471 17.446 17.9046 16.8377 17.622 16.1535C17.0422 14.7493 16.9817 14.6501 16.6745 14.5996C16.4314 14.5597 16.1506 14.5621 15.8842 14.6066ZM10 19.9581C10 20.3129 10.0059 20.4581 10.0131 20.2807C10.0204 20.1033 10.0204 19.813 10.0131 19.6356C10.0059 19.4582 10 19.6034 10 19.9581Z" fill="white"/>
</svg>
